<?xml version="1.0" encoding="utf-8"?>
<svg xmlns="http://www.w3.org/2000/svg" viewBox="0 0 200 200" width="200px" height="200px">
  <path d="M 90 10 L 110 10 L 110 20 L 120 20 L 120 50 L 80 50 L 80 20 L 90 20 Z" style="fill: rgb(172, 50, 50); stroke-width: 1;"/>
  <path d="M 140 30 L 160 30 L 160 40 L 170 40 L 170 60 L 130 60 L 130 40 L 140 40 Z M 160 70 L 140 70 L 140 50 L 140 60 L 160 60 Z" style="fill: rgb(223, 113, 38); stroke-width: 1;"/>
  <path d="M 150 80 L 180 80 L 180 90 L 190 90 L 190 110 L 180 110 L 180 120 L 150 120 Z" style="fill: rgb(251, 242, 54); stroke-width: 1;"/>
  <path d="M 140 130 L 160 130 L 160 140 L 170 140 L 170 160 L 130 160 L 130 140 L 140 140 Z M 160 170 L 140 170 L 140 150 L 140 160 L 160 160 Z" style="fill: rgb(106, 190, 48); stroke-width: 1;"/>
  <path d="M 80 150 L 120 150 L 120 180 L 80 180 Z M 110 190 L 90 190 L 90 170 L 90 180 L 110 180 Z" style="fill: rgb(91, 110, 255); stroke-width: 1;"/>
  <path d="M 40 130 L 60 130 L 60 140 L 70 140 L 70 160 L 30 160 L 30 140 L 40 140 Z M 60 170 L 40 170 L 40 150 L 40 160 L 60 160 Z" style="fill: rgb(63, 63, 116); stroke-width: 1;"/>
  <path d="M 40 30 L 60 30 L 60 40 L 70 40 L 70 60 L 30 60 L 30 40 L 40 40 Z M 60 70 L 40 70 L 40 50 L 40 60 L 60 60 Z" style="fill: rgb(215, 123, 186); stroke-width: 1;"/>
  <path d="M 20 80 L 50 80 L 50 120 L 20 120 L 20 110 L 10 110 L 10 90 L 20 90 Z" style="fill: rgb(118, 66, 138); stroke-width: 1;"/>
  <path d="M 90 0 L 110 0 L 110 10 L 90 10 L 90 0 Z M 80 10 L 90 10 L 90 20 L 80 20 L 80 10 Z M 110 10 L 120 10 L 120 20 L 110 20 L 110 10 Z M 40 20 L 60 20 L 60 30 L 40 30 L 40 20 Z M 70 20 L 80 20 L 80 50 L 120 50 L 120 20 L 130 20 L 130 30 L 140 30 L 140 40 L 130 40 L 130 60 L 140 60 L 140 70 L 160 70 L 160 60 L 170 60 L 170 70 L 180 70 L 180 80 L 150 80 L 150 120 L 180 120 L 180 130 L 170 130 L 170 140 L 160 140 L 160 130 L 140 130 L 140 140 L 130 140 L 130 160 L 140 160 L 140 170 L 130 170 L 130 180 L 120 180 L 120 150 L 80 150 L 80 180 L 70 180 L 70 170 L 60 170 L 60 160 L 70 160 L 70 140 L 60 140 L 60 130 L 40 130 L 40 140 L 30 140 L 30 130 L 20 130 L 20 120 L 50 120 L 50 80 L 20 80 L 20 70 L 30 70 L 30 60 L 40 60 L 40 70 L 60 70 L 60 60 L 70 60 L 70 40 L 60 40 L 60 30 L 70 30 L 70 20 Z M 110 130 L 130 130 L 130 110 L 140 110 L 140 90 L 130 90 L 130 70 L 110 70 L 110 60 L 90 60 L 90 70 L 70 70 L 70 90 L 60 90 L 60 110 L 70 110 L 70 130 L 90 130 L 90 140 L 110 140 L 110 130 Z M 140 20 L 160 20 L 160 30 L 140 30 L 140 20 Z M 30 30 L 40 30 L 40 40 L 30 40 L 30 30 Z M 160 30 L 170 30 L 170 40 L 160 40 L 160 30 Z M 20 40 L 30 40 L 30 60 L 20 60 L 20 40 Z M 170 40 L 180 40 L 180 60 L 170 60 L 170 40 Z M 10 80 L 20 80 L 20 90 L 10 90 L 10 80 Z M 180 80 L 190 80 L 190 90 L 180 90 L 180 80 Z M 0 90 L 10 90 L 10 110 L 0 110 L 0 90 Z M 190 90 L 200 90 L 200 110 L 190 110 L 190 90 Z M 10 110 L 20 110 L 20 120 L 10 120 L 10 110 Z M 180 110 L 190 110 L 190 120 L 180 120 L 180 110 Z M 20 140 L 30 140 L 30 160 L 20 160 L 20 140 Z M 170 140 L 180 140 L 180 160 L 170 160 L 170 140 Z M 30 160 L 40 160 L 40 170 L 30 170 L 30 160 Z M 160 160 L 170 160 L 170 170 L 160 170 L 160 160 Z M 40 170 L 60 170 L 60 180 L 40 180 L 40 170 Z M 140 170 L 160 170 L 160 180 L 140 180 L 140 170 Z M 80 180 L 90 180 L 90 190 L 80 190 L 80 180 Z M 110 180 L 120 180 L 120 190 L 110 190 L 110 180 Z M 90 190 L 110 190 L 110 200 L 90 200 L 90 190 Z" style="fill: rgb(0, 0, 0); stroke-width: 1;"/>
  <path d="M 60 90 L 70 90 L 70 70 L 90 70 L 90 60 L 110 60 L 110 70 L 130 70 L 130 90 L 140 90 L 140 110 L 130 110 L 130 130 L 70 130 L 70 110 L 60 110 Z M 110 140 L 90 140 L 90 120 L 90 130 L 110 130 L 110 120 Z" style="fill: rgb(255, 255, 255); stroke-width: 1;"/>
  <path d="M 80 40 L 120 40 L 120 50 L 80 50 L 80 40 Z" style="fill: rgb(120, 35, 35); stroke-width: 1;"/>
  <path d="M 130 50 L 140 50 L 140 60 L 130 60 L 130 50 Z M 160 50 L 170 50 L 170 60 L 160 60 L 160 50 Z M 140 60 L 160 60 L 160 70 L 140 70 L 140 60 Z" style="fill: rgb(171, 87, 29); stroke-width: 1;"/>
  <path d="M 180 100 L 190 100 L 190 110 L 180 110 L 180 100 Z M 150 110 L 180 110 L 180 120 L 150 120 L 150 110 Z" style="fill: rgb(199, 192, 43); stroke-width: 1;"/>
  <path d="M 130 150 L 140 150 L 140 160 L 130 160 L 130 150 Z M 160 150 L 170 150 L 170 160 L 160 160 L 160 150 Z M 140 160 L 160 160 L 160 170 L 140 170 L 140 160 Z" style="fill: rgb(78, 140, 35); stroke-width: 1;"/>
  <path d="M 80 170 L 90 170 L 90 180 L 80 180 L 80 170 Z M 110 170 L 120 170 L 120 180 L 110 180 L 110 170 Z M 90 180 L 110 180 L 110 190 L 90 190 L 90 180 Z" style="fill: rgb(70, 85, 173); stroke-width: 1;"/>
  <path d="M 30 150 L 40 150 L 40 160 L 30 160 L 30 150 Z M 60 150 L 70 150 L 70 160 L 60 160 L 60 150 Z M 40 160 L 60 160 L 60 170 L 40 170 L 40 160 Z" style="fill: rgb(35, 35, 64); stroke-width: 1;"/>
  <path d="M 10 100 L 20 100 L 20 110 L 10 110 L 10 100 Z M 20 110 L 50 110 L 50 120 L 20 120 L 20 110 Z" style="fill: rgb(74, 41, 87); stroke-width: 1;"/>
  <path d="M 30 50 L 40 50 L 40 60 L 30 60 L 30 50 Z M 60 50 L 70 50 L 70 60 L 60 60 L 60 50 Z M 40 60 L 60 60 L 60 70 L 40 70 L 40 60 Z" style="fill: rgb(163, 93, 141); stroke-width: 1;"/>
  <path d="M 60 100 L 70 100 L 70 110 L 60 110 L 60 100 Z M 130 100 L 140 100 L 140 110 L 130 110 L 130 100 Z M 70 120 L 90 120 L 90 130 L 70 130 L 70 120 Z M 110 120 L 130 120 L 130 130 L 110 130 L 110 120 Z M 90 130 L 110 130 L 110 140 L 90 140 L 90 130 Z" style="fill: rgb(204, 204, 204); stroke-width: 1;"/>
</svg>